<?xml version="1.0" encoding="UTF-8" standalone="no"?>
<!DOCTYPE svg PUBLIC "-//W3C//DTD SVG 1.1//EN"
 "http://www.w3.org/Graphics/SVG/1.1/DTD/svg11.dtd">
<!-- Generated by graphviz version 2.47.0 (20210316.0004)
 -->
<!-- Title: dependencies Pages: 1 -->
<svg width="1284pt" height="284pt"
 viewBox="0.00 0.00 1284.00 284.00" xmlns="http://www.w3.org/2000/svg" xmlns:xlink="http://www.w3.org/1999/xlink">
<g id="graph0" class="graph" transform="scale(1 1) rotate(0) translate(4 280)">
<title>dependencies</title>
<polygon fill="white" stroke="transparent" points="-4,4 -4,-280 1280,-280 1280,4 -4,4"/>
<text text-anchor="start" x="617.01" y="-42.4" font-family="Times-12" font-weight="bold" font-size="14.00">Legend</text>
<polygon fill="#ffffb3" stroke="transparent" points="404,-10 404,-30 424,-30 424,-10 404,-10"/>
<text text-anchor="start" x="427.63" y="-15.4" font-family="Times-12" font-size="14.00"> &#160;Declarations</text>
<polygon fill="#8dd3c7" stroke="transparent" points="517,-10 517,-30 537,-30 537,-10 517,-10"/>
<text text-anchor="start" x="540.73" y="-15.4" font-family="Times-12" font-size="14.00"> &#160;Module</text>
<polygon fill="#80b1d3" stroke="transparent" points="603,-10 603,-30 623,-30 623,-10 603,-10"/>
<text text-anchor="start" x="626.78" y="-15.4" font-family="Times-12" font-size="14.00"> &#160;Bootstrap</text>
<polygon fill="#fdb462" stroke="transparent" points="700,-10 700,-30 720,-30 720,-10 700,-10"/>
<text text-anchor="start" x="723.67" y="-15.4" font-family="Times-12" font-size="14.00"> &#160;Providers</text>
<polygon fill="#fb8072" stroke="transparent" points="796,-10 796,-30 816,-30 816,-10 796,-10"/>
<text text-anchor="start" x="819.73" y="-15.4" font-family="Times-12" font-size="14.00"> &#160;Exports</text>
<g id="clust1" class="cluster">
<title>cluster_AppModule</title>
<polygon fill="none" stroke="black" stroke-dasharray="1,5" points="8,-70 8,-268 1268,-268 1268,-70 8,-70"/>
</g>
<g id="clust10" class="cluster">
<title>cluster_AppModule_imports</title>
<polygon fill="none" stroke="black" points="1116,-78 1116,-130 1260,-130 1260,-78 1116,-78"/>
</g>
<g id="clust12" class="cluster">
<title>cluster_AppModule_bootstrap</title>
<polygon fill="none" stroke="black" points="618,-208 618,-260 742,-260 742,-208 618,-208"/>
</g>
<g id="clust2" class="cluster">
<title>cluster_AppModule_declarations</title>
<polygon fill="none" stroke="black" points="16,-78 16,-130 1108,-130 1108,-78 16,-78"/>
</g>
<!-- ActividadComponent -->
<g id="node1" class="node">
<title>ActividadComponent</title>
<polygon fill="#ffffb3" stroke="black" points="1100.04,-122 963.96,-122 963.96,-86 1100.04,-86 1100.04,-122"/>
<text text-anchor="middle" x="1032" y="-99.8" font-family="Times,serif" font-size="14.00">ActividadComponent</text>
</g>
<!-- AppModule -->
<g id="node8" class="node">
<title>AppModule</title>
<polygon fill="#8dd3c7" stroke="black" points="721.66,-187 718.66,-191 697.66,-191 694.66,-187 638.34,-187 638.34,-151 721.66,-151 721.66,-187"/>
<text text-anchor="middle" x="680" y="-164.8" font-family="Times,serif" font-size="14.00">AppModule</text>
</g>
<!-- ActividadComponent&#45;&gt;AppModule -->
<g id="edge1" class="edge">
<title>ActividadComponent&#45;&gt;AppModule</title>
<path fill="none" stroke="black" d="M1032,-122.11C1032,-141.34 1032,-169 1032,-169 1032,-169 731.76,-169 731.76,-169"/>
<polygon fill="black" stroke="black" points="731.76,-165.5 721.76,-169 731.76,-172.5 731.76,-165.5"/>
</g>
<!-- AppComponent -->
<g id="node2" class="node">
<title>AppComponent</title>
<polygon fill="#ffffb3" stroke="black" points="945.94,-122 840.06,-122 840.06,-86 945.94,-86 945.94,-122"/>
<text text-anchor="middle" x="893" y="-99.8" font-family="Times,serif" font-size="14.00">AppComponent</text>
</g>
<!-- AppComponent&#45;&gt;AppModule -->
<g id="edge2" class="edge">
<title>AppComponent&#45;&gt;AppModule</title>
<path fill="none" stroke="black" d="M893,-122.03C893,-138.4 893,-160 893,-160 893,-160 731.83,-160 731.83,-160"/>
<polygon fill="black" stroke="black" points="731.83,-156.5 721.83,-160 731.83,-163.5 731.83,-156.5"/>
</g>
<!-- FiltroActividadesPipe -->
<g id="node3" class="node">
<title>FiltroActividadesPipe</title>
<polygon fill="#ffffb3" stroke="black" points="822.37,-122 683.63,-122 683.63,-86 822.37,-86 822.37,-122"/>
<text text-anchor="middle" x="753" y="-99.8" font-family="Times,serif" font-size="14.00">FiltroActividadesPipe</text>
</g>
<!-- FiltroActividadesPipe&#45;&gt;AppModule -->
<g id="edge3" class="edge">
<title>FiltroActividadesPipe&#45;&gt;AppModule</title>
<path fill="none" stroke="black" d="M702.7,-122.11C702.7,-122.11 702.7,-140.99 702.7,-140.99"/>
<polygon fill="black" stroke="black" points="699.2,-140.99 702.7,-150.99 706.2,-140.99 699.2,-140.99"/>
</g>
<!-- LoginComponent -->
<g id="node4" class="node">
<title>LoginComponent</title>
<polygon fill="#ffffb3" stroke="black" points="665.28,-122 550.72,-122 550.72,-86 665.28,-86 665.28,-122"/>
<text text-anchor="middle" x="608" y="-99.8" font-family="Times,serif" font-size="14.00">LoginComponent</text>
</g>
<!-- LoginComponent&#45;&gt;AppModule -->
<g id="edge4" class="edge">
<title>LoginComponent&#45;&gt;AppModule</title>
<path fill="none" stroke="black" d="M651.78,-122.11C651.78,-122.11 651.78,-140.99 651.78,-140.99"/>
<polygon fill="black" stroke="black" points="648.28,-140.99 651.78,-150.99 655.28,-140.99 648.28,-140.99"/>
</g>
<!-- TemplatePreviewComponent -->
<g id="node5" class="node">
<title>TemplatePreviewComponent</title>
<polygon fill="#ffffb3" stroke="black" points="533.07,-122 352.93,-122 352.93,-86 533.07,-86 533.07,-122"/>
<text text-anchor="middle" x="443" y="-99.8" font-family="Times,serif" font-size="14.00">TemplatePreviewComponent</text>
</g>
<!-- TemplatePreviewComponent&#45;&gt;AppModule -->
<g id="edge5" class="edge">
<title>TemplatePreviewComponent&#45;&gt;AppModule</title>
<path fill="none" stroke="black" d="M443,-122.03C443,-138.4 443,-160 443,-160 443,-160 628.17,-160 628.17,-160"/>
<polygon fill="black" stroke="black" points="628.17,-163.5 638.17,-160 628.17,-156.5 628.17,-163.5"/>
</g>
<!-- UsersComponent -->
<g id="node6" class="node">
<title>UsersComponent</title>
<polygon fill="#ffffb3" stroke="black" points="334.7,-122 221.3,-122 221.3,-86 334.7,-86 334.7,-122"/>
<text text-anchor="middle" x="278" y="-99.8" font-family="Times,serif" font-size="14.00">UsersComponent</text>
</g>
<!-- UsersComponent&#45;&gt;AppModule -->
<g id="edge6" class="edge">
<title>UsersComponent&#45;&gt;AppModule</title>
<path fill="none" stroke="black" d="M278,-122.11C278,-141.34 278,-169 278,-169 278,-169 628.12,-169 628.12,-169"/>
<polygon fill="black" stroke="black" points="628.12,-172.5 638.12,-169 628.12,-165.5 628.12,-172.5"/>
</g>
<!-- manageActivitiesComponent -->
<g id="node7" class="node">
<title>manageActivitiesComponent</title>
<polygon fill="#ffffb3" stroke="black" points="203.8,-122 24.2,-122 24.2,-86 203.8,-86 203.8,-122"/>
<text text-anchor="middle" x="114" y="-99.8" font-family="Times,serif" font-size="14.00">manageActivitiesComponent</text>
</g>
<!-- manageActivitiesComponent&#45;&gt;AppModule -->
<g id="edge7" class="edge">
<title>manageActivitiesComponent&#45;&gt;AppModule</title>
<path fill="none" stroke="black" d="M114,-122.29C114,-144.21 114,-178 114,-178 114,-178 627.92,-178 627.92,-178"/>
<polygon fill="black" stroke="black" points="627.92,-181.5 637.92,-178 627.92,-174.5 627.92,-181.5"/>
</g>
<!-- AppComponent  -->
<g id="node10" class="node">
<title>AppComponent </title>
<polygon fill="#80b1d3" stroke="black" points="734.44,-252 625.56,-252 625.56,-216 734.44,-216 734.44,-252"/>
<text text-anchor="middle" x="680" y="-229.8" font-family="Times,serif" font-size="14.00">AppComponent </text>
</g>
<!-- AppModule&#45;&gt;AppComponent  -->
<g id="edge9" class="edge">
<title>AppModule&#45;&gt;AppComponent </title>
<path fill="none" stroke="black" stroke-dasharray="1,5" d="M680,-187.11C680,-187.11 680,-205.99 680,-205.99"/>
<polygon fill="black" stroke="black" points="676.5,-205.99 680,-215.99 683.5,-205.99 676.5,-205.99"/>
</g>
<!-- AppRoutingModule -->
<g id="node9" class="node">
<title>AppRoutingModule</title>
<polygon fill="#8dd3c7" stroke="black" points="1252.27,-122 1249.27,-126 1228.27,-126 1225.27,-122 1123.73,-122 1123.73,-86 1252.27,-86 1252.27,-122"/>
<text text-anchor="middle" x="1188" y="-99.8" font-family="Times,serif" font-size="14.00">AppRoutingModule</text>
</g>
<!-- AppRoutingModule&#45;&gt;AppModule -->
<g id="edge8" class="edge">
<title>AppRoutingModule&#45;&gt;AppModule</title>
<path fill="none" stroke="black" d="M1188,-122.29C1188,-144.21 1188,-178 1188,-178 1188,-178 732,-178 732,-178"/>
<polygon fill="black" stroke="black" points="732,-174.5 722,-178 732,-181.5 732,-174.5"/>
</g>
</g>
</svg>
