<?xml version="1.0" encoding="UTF-8" standalone="no"?>
<!DOCTYPE svg PUBLIC "-//W3C//DTD SVG 1.1//EN"
 "http://www.w3.org/Graphics/SVG/1.1/DTD/svg11.dtd">
<!-- Generated by graphviz version 2.47.0 (20210316.0004)
 -->
<!-- Title: dependencies Pages: 1 -->
<svg width="1284pt" height="284pt"
 viewBox="0.00 0.00 1284.00 284.00" xmlns="http://www.w3.org/2000/svg" xmlns:xlink="http://www.w3.org/1999/xlink">
<g id="graph0" class="graph" transform="scale(1 1) rotate(0) translate(4 280)">
<title>dependencies</title>
<polygon fill="white" stroke="transparent" points="-4,4 -4,-280 1280,-280 1280,4 -4,4"/>
<text text-anchor="start" x="617.01" y="-42.4" font-family="Times-12" font-weight="bold" font-size="14.00">Legend</text>
<polygon fill="#ffffb3" stroke="transparent" points="404,-10 404,-30 424,-30 424,-10 404,-10"/>
<text text-anchor="start" x="427.63" y="-15.4" font-family="Times-12" font-size="14.00"> &#160;Declarations</text>
<polygon fill="#8dd3c7" stroke="transparent" points="517,-10 517,-30 537,-30 537,-10 517,-10"/>
<text text-anchor="start" x="540.73" y="-15.4" font-family="Times-12" font-size="14.00"> &#160;Module</text>
<polygon fill="#80b1d3" stroke="transparent" points="603,-10 603,-30 623,-30 623,-10 603,-10"/>
<text text-anchor="start" x="626.78" y="-15.4" font-family="Times-12" font-size="14.00"> &#160;Bootstrap</text>
<polygon fill="#fdb462" stroke="transparent" points="700,-10 700,-30 720,-30 720,-10 700,-10"/>
<text text-anchor="start" x="723.67" y="-15.4" font-family="Times-12" font-size="14.00"> &#160;Providers</text>
<polygon fill="#fb8072" stroke="transparent" points="796,-10 796,-30 816,-30 816,-10 796,-10"/>
<text text-anchor="start" x="819.73" y="-15.4" font-family="Times-12" font-size="14.00"> &#160;Exports</text>
<g id="clust1" class="cluster">
<title>cluster_AppModule</title>
<polygon fill="none" stroke="black" stroke-dasharray="1,5" points="8,-70 8,-268 1268,-268 1268,-70 8,-70"/>
</g>
<g id="clust2" class="cluster">
<title>cluster_AppModule_declarations</title>
<polygon fill="none" stroke="black" points="168,-78 168,-130 1260,-130 1260,-78 168,-78"/>
</g>
<g id="clust10" class="cluster">
<title>cluster_AppModule_imports</title>
<polygon fill="none" stroke="black" points="16,-78 16,-130 160,-130 160,-78 16,-78"/>
</g>
<g id="clust12" class="cluster">
<title>cluster_AppModule_bootstrap</title>
<polygon fill="none" stroke="black" points="615,-208 615,-260 739,-260 739,-208 615,-208"/>
</g>
<!-- ActividadComponent -->
<g id="node1" class="node">
<title>ActividadComponent</title>
<polygon fill="#ffffb3" stroke="black" points="1252.04,-122 1115.96,-122 1115.96,-86 1252.04,-86 1252.04,-122"/>
<text text-anchor="middle" x="1184" y="-99.8" font-family="Times,serif" font-size="14.00">ActividadComponent</text>
</g>
<!-- AppModule -->
<g id="node8" class="node">
<title>AppModule</title>
<polygon fill="#8dd3c7" stroke="black" points="718.66,-187 715.66,-191 694.66,-191 691.66,-187 635.34,-187 635.34,-151 718.66,-151 718.66,-187"/>
<text text-anchor="middle" x="677" y="-164.8" font-family="Times,serif" font-size="14.00">AppModule</text>
</g>
<!-- ActividadComponent&#45;&gt;AppModule -->
<g id="edge1" class="edge">
<title>ActividadComponent&#45;&gt;AppModule</title>
<path fill="none" stroke="black" d="M1184,-122.29C1184,-144.21 1184,-178 1184,-178 1184,-178 728.92,-178 728.92,-178"/>
<polygon fill="black" stroke="black" points="728.92,-174.5 718.92,-178 728.92,-181.5 728.92,-174.5"/>
</g>
<!-- AppComponent -->
<g id="node2" class="node">
<title>AppComponent</title>
<polygon fill="#ffffb3" stroke="black" points="1097.94,-122 992.06,-122 992.06,-86 1097.94,-86 1097.94,-122"/>
<text text-anchor="middle" x="1045" y="-99.8" font-family="Times,serif" font-size="14.00">AppComponent</text>
</g>
<!-- AppComponent&#45;&gt;AppModule -->
<g id="edge2" class="edge">
<title>AppComponent&#45;&gt;AppModule</title>
<path fill="none" stroke="black" d="M1045,-122.11C1045,-141.34 1045,-169 1045,-169 1045,-169 728.86,-169 728.86,-169"/>
<polygon fill="black" stroke="black" points="728.86,-165.5 718.86,-169 728.86,-172.5 728.86,-165.5"/>
</g>
<!-- FiltroActividadesPipe -->
<g id="node3" class="node">
<title>FiltroActividadesPipe</title>
<polygon fill="#ffffb3" stroke="black" points="974.37,-122 835.63,-122 835.63,-86 974.37,-86 974.37,-122"/>
<text text-anchor="middle" x="905" y="-99.8" font-family="Times,serif" font-size="14.00">FiltroActividadesPipe</text>
</g>
<!-- FiltroActividadesPipe&#45;&gt;AppModule -->
<g id="edge3" class="edge">
<title>FiltroActividadesPipe&#45;&gt;AppModule</title>
<path fill="none" stroke="black" d="M905,-122.03C905,-138.4 905,-160 905,-160 905,-160 728.82,-160 728.82,-160"/>
<polygon fill="black" stroke="black" points="728.82,-156.5 718.82,-160 728.82,-163.5 728.82,-156.5"/>
</g>
<!-- LoginComponent -->
<g id="node4" class="node">
<title>LoginComponent</title>
<polygon fill="#ffffb3" stroke="black" points="817.28,-122 702.72,-122 702.72,-86 817.28,-86 817.28,-122"/>
<text text-anchor="middle" x="760" y="-99.8" font-family="Times,serif" font-size="14.00">LoginComponent</text>
</g>
<!-- LoginComponent&#45;&gt;AppModule -->
<g id="edge4" class="edge">
<title>LoginComponent&#45;&gt;AppModule</title>
<path fill="none" stroke="black" d="M710.72,-122.11C710.72,-122.11 710.72,-140.99 710.72,-140.99"/>
<polygon fill="black" stroke="black" points="707.22,-140.99 710.72,-150.99 714.22,-140.99 707.22,-140.99"/>
</g>
<!-- TemplatePreviewComponent -->
<g id="node5" class="node">
<title>TemplatePreviewComponent</title>
<polygon fill="#ffffb3" stroke="black" points="685.07,-122 504.93,-122 504.93,-86 685.07,-86 685.07,-122"/>
<text text-anchor="middle" x="595" y="-99.8" font-family="Times,serif" font-size="14.00">TemplatePreviewComponent</text>
</g>
<!-- TemplatePreviewComponent&#45;&gt;AppModule -->
<g id="edge5" class="edge">
<title>TemplatePreviewComponent&#45;&gt;AppModule</title>
<path fill="none" stroke="black" d="M660.1,-122.11C660.1,-122.11 660.1,-140.99 660.1,-140.99"/>
<polygon fill="black" stroke="black" points="656.6,-140.99 660.1,-150.99 663.6,-140.99 656.6,-140.99"/>
</g>
<!-- UsersComponent -->
<g id="node6" class="node">
<title>UsersComponent</title>
<polygon fill="#ffffb3" stroke="black" points="486.7,-122 373.3,-122 373.3,-86 486.7,-86 486.7,-122"/>
<text text-anchor="middle" x="430" y="-99.8" font-family="Times,serif" font-size="14.00">UsersComponent</text>
</g>
<!-- UsersComponent&#45;&gt;AppModule -->
<g id="edge6" class="edge">
<title>UsersComponent&#45;&gt;AppModule</title>
<path fill="none" stroke="black" d="M430,-122.03C430,-138.4 430,-160 430,-160 430,-160 625.1,-160 625.1,-160"/>
<polygon fill="black" stroke="black" points="625.1,-163.5 635.1,-160 625.1,-156.5 625.1,-163.5"/>
</g>
<!-- manageActivitiesComponent -->
<g id="node7" class="node">
<title>manageActivitiesComponent</title>
<polygon fill="#ffffb3" stroke="black" points="355.8,-122 176.2,-122 176.2,-86 355.8,-86 355.8,-122"/>
<text text-anchor="middle" x="266" y="-99.8" font-family="Times,serif" font-size="14.00">manageActivitiesComponent</text>
</g>
<!-- manageActivitiesComponent&#45;&gt;AppModule -->
<g id="edge7" class="edge">
<title>manageActivitiesComponent&#45;&gt;AppModule</title>
<path fill="none" stroke="black" d="M266,-122.11C266,-141.34 266,-169 266,-169 266,-169 625.33,-169 625.33,-169"/>
<polygon fill="black" stroke="black" points="625.33,-172.5 635.33,-169 625.33,-165.5 625.33,-172.5"/>
</g>
<!-- AppComponent  -->
<g id="node10" class="node">
<title>AppComponent </title>
<polygon fill="#80b1d3" stroke="black" points="731.44,-252 622.56,-252 622.56,-216 731.44,-216 731.44,-252"/>
<text text-anchor="middle" x="677" y="-229.8" font-family="Times,serif" font-size="14.00">AppComponent </text>
</g>
<!-- AppModule&#45;&gt;AppComponent  -->
<g id="edge9" class="edge">
<title>AppModule&#45;&gt;AppComponent </title>
<path fill="none" stroke="black" stroke-dasharray="1,5" d="M677,-187.11C677,-187.11 677,-205.99 677,-205.99"/>
<polygon fill="black" stroke="black" points="673.5,-205.99 677,-215.99 680.5,-205.99 673.5,-205.99"/>
</g>
<!-- AppRoutingModule -->
<g id="node9" class="node">
<title>AppRoutingModule</title>
<polygon fill="#8dd3c7" stroke="black" points="152.27,-122 149.27,-126 128.27,-126 125.27,-122 23.73,-122 23.73,-86 152.27,-86 152.27,-122"/>
<text text-anchor="middle" x="88" y="-99.8" font-family="Times,serif" font-size="14.00">AppRoutingModule</text>
</g>
<!-- AppRoutingModule&#45;&gt;AppModule -->
<g id="edge8" class="edge">
<title>AppRoutingModule&#45;&gt;AppModule</title>
<path fill="none" stroke="black" d="M88,-122.29C88,-144.21 88,-178 88,-178 88,-178 625.11,-178 625.11,-178"/>
<polygon fill="black" stroke="black" points="625.11,-181.5 635.11,-178 625.11,-174.5 625.11,-181.5"/>
</g>
</g>
</svg>
